<?xml version="1.0" standalone="no"?>
<!DOCTYPE svg PUBLIC "-//W3C//DTD SVG 20010904//EN"
 "http://www.w3.org/TR/2001/REC-SVG-20010904/DTD/svg10.dtd">
<svg version="1.0" xmlns="http://www.w3.org/2000/svg"
 width="538.000000pt" height="102.000000pt" viewBox="0 0 538.000000 102.000000"
 preserveAspectRatio="xMidYMid meet">

<g transform="translate(0.000000,102.000000) scale(0.100000,-0.100000)"
fill="#000000" stroke="none">
<path d="M524 965 c-3 -11 -29 -92 -58 -180 l-52 -160 -194 -3 -194 -2 156
-115 156 -115 -58 -178 c-32 -97 -57 -179 -55 -181 2 -2 72 46 156 107 l152
110 111 -81 c61 -44 132 -95 157 -113 l47 -34 -61 185 c-33 102 -58 187 -56
188 2 2 71 53 153 113 l150 109 -107 3 c-103 3 -107 3 -97 22 13 24 2 76 -12
62 -6 -6 -13 -25 -17 -44 -6 -28 -11 -33 -39 -36 -18 -2 -32 1 -32 8 0 8 -6 8
-21 0 -15 -9 -24 -8 -35 1 -19 15 -18 28 4 52 17 19 16 19 -14 13 l-31 -7 -48
143 c-26 79 -50 145 -52 148 -2 2 -6 -5 -9 -15z m76 -348 c0 -16 -5 -38 -11
-50 -19 -36 -82 -97 -101 -97 -31 0 -20 29 22 55 45 28 67 65 54 88 -14 22
-138 -56 -159 -100 -19 -39 -8 -93 26 -137 16 -21 24 -24 39 -16 10 6 50 10
89 10 l71 0 20 40 c26 50 26 50 -9 37 -23 -8 -33 -8 -45 2 -27 22 -18 37 37
66 28 15 61 36 73 47 18 16 34 18 115 16 l94 -3 -110 -79 c-61 -44 -113 -82
-118 -86 -4 -3 2 -33 13 -66 12 -32 31 -94 45 -137 l23 -77 -31 22 c-18 12
-71 50 -118 84 l-86 62 -120 -88 -121 -88 44 131 c24 72 44 137 44 143 0 7
-52 50 -115 96 l-116 83 147 5 147 5 45 135 45 135 34 -105 c18 -58 33 -118
33 -133z"/>
<path d="M778 869 c-9 -5 -19 -28 -23 -52 -4 -23 -12 -48 -17 -54 -15 -19 32
-16 56 2 17 13 18 21 10 64 -8 42 -11 48 -26 40z"/>
<path d="M2422 818 c-9 -9 -12 -94 -12 -320 0 -327 -2 -315 48 -302 l22 6 0
314 0 314 -23 0 c-13 0 -28 -5 -35 -12z"/>
<path d="M2653 823 c-10 -4 -13 -77 -13 -319 0 -332 -1 -325 44 -308 14 5 16
43 16 320 0 293 -1 314 -17 313 -10 0 -24 -3 -30 -6z"/>
<path d="M5307 823 c-4 -3 -7 -53 -7 -111 0 -95 -1 -104 -17 -97 -10 5 -45 10
-79 13 -101 7 -186 -49 -229 -151 -22 -53 -19 -142 6 -195 50 -103 200 -134
282 -58 29 27 37 24 37 -12 0 -20 4 -23 23 -18 12 3 25 6 30 6 4 0 7 142 7
315 l0 315 -23 0 c-13 0 -27 -3 -30 -7z m-71 -239 c52 -25 64 -57 64 -176 0
-114 -8 -136 -60 -163 -59 -30 -137 -13 -178 40 -28 35 -46 116 -38 170 17
112 118 173 212 129z"/>
<path d="M1360 803 c-14 -2 -42 -9 -62 -14 l-38 -10 0 -293 0 -293 46 -7 c276
-37 456 107 442 354 -10 173 -127 273 -311 269 -29 -1 -63 -4 -77 -6z m188
-55 c91 -43 138 -143 130 -281 -11 -196 -127 -281 -326 -241 l-22 4 2 268 3
267 40 6 c58 8 124 0 173 -23z"/>
<path d="M2999 796 c-92 -33 -145 -105 -136 -185 7 -61 45 -94 139 -121 123
-36 158 -51 174 -75 24 -36 28 -87 10 -128 -42 -102 -237 -82 -277 28 -13 36
-35 45 -57 23 -42 -42 28 -128 122 -149 159 -35 297 64 283 204 -6 69 -48 108
-149 137 -139 40 -158 50 -175 85 -22 45 -11 97 28 129 64 54 189 28 219 -44
14 -34 14 -34 41 -20 27 15 24 47 -9 80 -47 47 -139 63 -213 36z"/>
<path d="M1908 619 c-16 -9 -18 -28 -18 -170 0 -173 6 -199 56 -238 56 -44
158 -35 210 20 36 38 44 37 44 -6 0 -35 5 -40 34 -29 14 5 16 34 16 220 0 118
-2 214 -4 214 -3 0 -16 -4 -30 -10 l-26 -10 0 -153 c0 -122 -3 -157 -16 -175
-33 -47 -111 -66 -164 -39 -49 24 -60 67 -60 235 0 158 -2 165 -42 141z"/>
<path d="M3368 620 c-15 -9 -15 -17 8 -103 14 -50 41 -137 60 -192 20 -55 38
-108 41 -117 6 -21 32 -23 56 -5 17 13 74 151 102 252 10 33 20 64 23 69 3 5
24 -49 47 -120 64 -195 74 -217 99 -210 12 3 24 6 28 6 14 0 122 302 143 398
5 27 4 32 -12 32 -32 0 -39 -13 -57 -105 -22 -111 -77 -288 -87 -278 -10 12
-66 179 -93 283 -14 51 -28 95 -31 98 -3 3 -16 0 -29 -6 -18 -8 -27 -24 -36
-64 -19 -81 -90 -297 -100 -303 -10 -6 -60 139 -94 275 -24 96 -34 109 -68 90z"/>
<path d="M4182 609 c-86 -43 -128 -127 -120 -239 5 -70 41 -131 98 -165 46
-26 150 -27 199 -1 79 42 121 117 121 216 0 81 -24 137 -75 176 -32 24 -49 29
-109 32 -57 2 -79 -1 -114 -19z m148 -28 c99 -53 119 -278 30 -341 -39 -28
-106 -30 -151 -4 -77 44 -110 198 -63 289 35 69 115 94 184 56z"/>
<path d="M4628 619 c-16 -9 -18 -31 -18 -219 0 -193 1 -210 18 -210 35 0 40
14 44 140 6 167 36 237 110 255 22 6 33 1 58 -24 26 -25 35 -29 51 -21 24 14
24 31 -2 64 -42 53 -146 25 -192 -52 l-22 -37 -3 58 c-3 59 -10 66 -44 46z"/>
</g>
</svg>
